<svg preserveAspectRatio="none" overflow="visible" style="display: block;" width="16.4925" height="14.6611" viewBox="0 0 16.4925 14.6611" fill="none" xmlns="http://www.w3.org/2000/svg">
<g id="Img">
<path id="Vector" d="M5.49684 0.91625C5.49684 0.409449 5.90629 0 6.41309 0H10.0781C10.5849 0 10.9943 0.409449 10.9943 0.91625V1.8325H12.3687C13.1275 1.8325 13.7431 2.44811 13.7431 3.20687V6.87187L15.0144 7.29564C15.6758 7.51611 15.8591 8.36937 15.3437 8.83895L12.4518 11.4903C11.9879 11.7595 11.4582 11.9227 10.9943 11.9227C10.4331 11.9227 9.82613 11.7022 9.29928 11.3415C8.6665 10.8976 7.82183 10.8976 7.18904 11.3415C6.69942 11.6793 6.101 11.9227 5.49398 11.9227C5.03013 11.9227 4.50042 11.7595 4.03657 11.4903L1.14466 8.83895C0.629265 8.36651 0.812515 7.51611 1.47393 7.29564L2.74809 6.87187V3.20687C2.74809 2.44811 3.3637 1.8325 4.12247 1.8325H5.49684V0.91625ZM4.58059 6.262L7.66721 5.23408C8.0423 5.10809 8.44889 5.10809 8.82684 5.23408L11.9106 6.262V3.665H4.58059V6.262ZM8.7753 12.0802C9.41954 12.524 10.2069 12.8275 10.9943 12.8275C11.7646 12.8275 12.5806 12.5183 13.2105 12.0802C13.5513 11.8368 14.0151 11.8568 14.3329 12.1289C14.7452 12.4696 15.2635 12.7301 15.7818 12.8504C16.2742 12.9649 16.5806 13.4574 16.4661 13.9499C16.3515 14.4424 15.8591 14.7488 15.3666 14.6342C14.6651 14.471 14.081 14.1618 13.7001 13.9184C12.8698 14.3651 11.9392 14.66 10.9943 14.66C10.081 14.66 9.2592 14.3765 8.69227 14.1188C8.5262 14.0415 8.37444 13.9671 8.24559 13.8984C8.11675 13.9671 7.96786 14.0444 7.79892 14.1188C7.23199 14.3765 6.41023 14.66 5.49684 14.66C4.55196 14.66 3.62139 14.3651 2.79104 13.9213C2.40736 14.1618 1.82612 14.4739 1.12461 14.6371C0.632129 14.7516 0.139644 14.4453 0.0251131 13.9528C-0.0894182 13.4603 0.216953 12.9678 0.709437 12.8533C1.22769 12.733 1.74595 12.4725 2.15826 12.1317C2.47608 11.8626 2.93993 11.8425 3.28066 12.083C3.91345 12.5183 4.72662 12.8275 5.49684 12.8275C6.28425 12.8275 7.07165 12.524 7.71589 12.0802C8.03371 11.854 8.45748 11.854 8.7753 12.0802Z" fill="#00A3E0"/>
</g>
</svg>
