<svg preserveAspectRatio="none" overflow="visible" style="display: block;" width="12.8283" height="14.6606" viewBox="0 0 12.8283 14.6606" fill="none" xmlns="http://www.w3.org/2000/svg">
<g id="Img">
<path id="Vector" d="M6.41375 7.33C5.44173 7.33 4.50952 6.94387 3.8222 6.25655C3.13488 5.56923 2.74875 4.63702 2.74875 3.665C2.74875 2.69298 3.13488 1.76077 3.8222 1.07345C4.50952 0.386133 5.44173 0 6.41375 0C7.38577 0 8.31798 0.386133 9.0053 1.07345C9.69262 1.76077 10.0788 2.69298 10.0788 3.665C10.0788 4.63702 9.69262 5.56923 9.0053 6.25655C8.31798 6.94387 7.38577 7.33 6.41375 7.33ZM5.98712 10.2849L5.45455 9.39729C5.2713 9.09092 5.49177 8.70438 5.84682 8.70438H6.41375H6.97782C7.33286 8.70438 7.55334 9.09378 7.37009 9.39729L6.83752 10.2849L7.79385 13.8325L8.82463 9.62635C8.8819 9.39443 9.10524 9.24267 9.33716 9.3028C11.3443 9.80674 12.8275 11.6221 12.8275 13.781C12.8275 14.2677 12.4324 14.66 11.9485 14.66H8.17467C8.11454 14.66 8.06014 14.6485 8.0086 14.6285L8.01719 14.66H4.81031L4.8189 14.6285C4.76736 14.6485 4.7101 14.66 4.65283 14.66H0.879027C0.395133 14.66 0 14.2649 0 13.781C0 11.6192 1.48604 9.80388 3.49034 9.3028C3.72227 9.24554 3.9456 9.39729 4.00287 9.62635L5.03365 13.8325L5.98998 10.2849H5.98712Z" fill="white"/>
</g>
</svg>
