<svg width="30" height="30" viewBox="0 0 30 30" fill="none" xmlns="http://www.w3.org/2000/svg">
<rect width="29.8667" height="29.8667" rx="14.9333" fill="#1CC0FF" fill-opacity="0.1"/>
<path d="M20.1505 17.0195C20.6099 18.1424 21.6562 18.9336 23.213 18.9336C23.5448 18.9336 23.8255 19.2143 23.8255 19.5461V19.9544C23.8255 20.3117 23.5448 20.5669 23.213 20.5669C21.6307 20.5669 20.4568 20.0565 19.538 19.0612C19.1807 19.9544 18.2875 20.5669 17.2922 20.5669H14.0255C13.0047 20.5669 12.1115 19.9544 11.7542 19.0612C10.8354 20.0565 9.66146 20.5669 8.10469 20.5669C7.7474 20.5669 7.49219 20.3117 7.49219 19.9544V19.5461C7.49219 19.2143 7.7474 18.9336 8.10469 18.9336C9.66146 18.9336 10.6823 18.1424 11.1417 17.0195L9.35521 15.2331C8.92135 14.7992 9.1 14.0591 9.68698 13.8805L10.7589 13.5487V9.95026C10.7589 9.51641 11.1161 9.13359 11.5755 9.13359H13.2089V8.11276C13.2089 7.78099 13.4641 7.50026 13.8214 7.50026H17.4964C17.8281 7.50026 18.1089 7.78099 18.1089 8.11276V9.13359H19.7422C20.176 9.13359 20.5589 9.51641 20.5589 9.95026V13.5487L21.6052 13.8805C22.1922 14.0591 22.3708 14.7992 21.937 15.2331L20.1505 17.0195ZM12.3922 10.7669V13.0128L15.4036 12.043C15.4802 12.0174 15.5568 12.0174 15.6589 12.0174C15.7354 12.0174 15.812 12.0174 15.8885 12.043L18.9255 13.0128V10.7669H12.3922Z" fill="#1CC0FF"/>
</svg>
